<svg xmlns="http://www.w3.org/2000/svg" width="113.23" height="29.4" viewBox="0 0 113.23 29.4">
  <path id="Tracé_85" data-name="Tracé 85" d="M-56.112,0V-29.4h10.29L-40.74-3.78h.756L-34.9-29.4h10.29V0h-5.376V-25.326h-.756L-35.784,0H-44.94l-5.04-25.326h-.756V0Zm43.848,0V-24.36h-8.568V-29.4H1.848v5.04H-6.72V0ZM5.628,0V-29.4H16.17L22.008-3.78h.756V-29.4h5.46V0H17.682L11.844-25.62h-.756V0Zm27.3,0V-4.872h3.864V-24.528H32.928V-29.4h15.12a11.269,11.269,0,0,1,4.683.9,7.227,7.227,0,0,1,3.108,2.562,6.956,6.956,0,0,1,1.113,3.969v.42a6.421,6.421,0,0,1-.756,3.3,6,6,0,0,1-1.785,1.974,7.763,7.763,0,0,1-1.953.987v.756a7.554,7.554,0,0,1,2.016.945,5.853,5.853,0,0,1,1.869,1.995,6.58,6.58,0,0,1,.777,3.4v.42a7.494,7.494,0,0,1-1.134,4.179A7.3,7.3,0,0,1,52.857-.924,10.94,10.94,0,0,1,48.216,0Zm9.408-5.04h5.208a4.562,4.562,0,0,0,2.919-.882,3.027,3.027,0,0,0,1.113-2.52v-.42a3.052,3.052,0,0,0-1.092-2.52,4.544,4.544,0,0,0-2.94-.882H42.336Zm0-12.264H47.46a4.424,4.424,0,0,0,2.835-.882,2.936,2.936,0,0,0,1.113-2.436v-.42A2.946,2.946,0,0,0,50.316-23.5a4.478,4.478,0,0,0-2.856-.861H42.336Z" transform="translate(56.111 29.4)" fill="#c7542f"/>
</svg>
